<svg width="284" height="50" viewBox="0 0 284 50" fill="none" xmlns="http://www.w3.org/2000/svg">
<g clip-path="url(#clip0_4764_732)">
<path d="M45.3726 45.3726H55.4554V15.1242H45.3726V45.3726ZM60.4968 10.0828H85.7038V0H60.4968V10.0828ZM45.3726 0H55.4554V10.0828H45.3726V0ZM30.2484 45.3726H40.3312V0H30.2484V45.3726ZM15.1242 35.2898H25.207V0H15.1242V35.2898ZM0 45.3726H10.0828V0H0V45.3726ZM60.4968 45.3726H70.5796V15.1242H60.4968V45.3726Z" fill="black"/>
<path d="M94.9727 35.9596C94.9727 30.3012 98.5155 26.0967 104.095 26.0967C109.674 26.0967 113.191 30.3006 113.191 35.9596C113.191 41.6179 109.675 45.796 104.095 45.796C98.5155 45.796 94.9727 41.6179 94.9727 35.9596ZM109.278 35.9596C109.278 32.1785 107.586 29.2431 104.122 29.2431C100.657 29.2431 98.8861 32.1779 98.8861 35.9596C98.8861 39.7141 100.657 42.6495 104.122 42.6495C107.586 42.6495 109.278 39.7141 109.278 35.9596Z" fill="#8B959E"/>
<path d="M114.988 31.809H118.452V33.501H118.532C119.405 32.3113 120.674 31.4385 122.525 31.4385C126.12 31.4385 128.421 34.3732 128.421 38.6042C128.421 42.9934 126.042 45.7699 122.551 45.7699C120.647 45.7699 119.405 45.003 118.638 43.8397H118.585V49.8156H114.989V31.809H114.988ZM124.772 38.7101C124.772 36.1453 123.873 34.3474 121.652 34.3474C119.404 34.3474 118.505 36.2776 118.505 38.7101C118.505 41.169 119.642 42.7823 121.784 42.7823C123.608 42.7816 124.772 41.2749 124.772 38.7101Z" fill="#8B959E"/>
<path d="M129.426 38.5777C129.426 34.5585 132.149 31.4385 136.116 31.4385C140.478 31.4385 142.806 34.7702 142.806 39.6087H132.969C133.234 41.6977 134.397 42.9934 136.433 42.9934C137.835 42.9934 138.655 42.3588 139.051 41.3278H142.594C142.092 43.7338 139.95 45.7699 136.46 45.7699C131.964 45.7699 129.426 42.6235 129.426 38.5777ZM133.022 37.1233H139.051C138.945 35.4048 137.808 34.215 136.169 34.215C134.265 34.215 133.339 35.3519 133.022 37.1233Z" fill="#8B959E"/>
<path d="M147.986 33.6598H148.066C148.992 32.2054 150.234 31.4385 152.085 31.4385C154.888 31.4385 156.765 33.554 156.765 36.5152V45.3729H153.17V37.0439C153.17 35.5894 152.323 34.5585 150.817 34.5585C149.23 34.5585 148.066 35.8276 148.066 37.6785V45.3729H144.471V31.809H147.987V33.6598H147.986Z" fill="#8B959E"/>
<path d="M163.719 26.4668H167.553V42.1727H176.437V45.3721H163.719V26.4668Z" fill="#8B959E"/>
<path d="M177.283 38.5777C177.283 34.5585 180.007 31.4385 183.973 31.4385C188.336 31.4385 190.663 34.7702 190.663 39.6087H180.827C181.091 41.6977 182.255 42.9934 184.291 42.9934C185.692 42.9934 186.512 42.3588 186.909 41.3278H190.451C189.949 43.7338 187.807 45.7699 184.317 45.7699C179.822 45.7699 177.283 42.6235 177.283 38.5777ZM180.879 37.1233H186.908C186.802 35.4048 185.665 34.215 184.026 34.215C182.122 34.215 181.197 35.3519 180.879 37.1233Z" fill="#8B959E"/>
<path d="M200.445 43.8661H200.392C199.705 44.897 198.727 45.6904 196.399 45.6904C193.623 45.6904 191.666 44.236 191.666 41.5388C191.666 38.5512 194.098 37.599 197.113 37.1761C199.36 36.8585 200.392 36.6739 200.392 35.6423C200.392 34.6642 199.625 34.0297 198.118 34.0297C196.426 34.0297 195.607 34.6378 195.501 35.9334H192.301C192.407 33.5539 194.179 31.4648 198.145 31.4648C202.217 31.4648 203.856 33.2892 203.856 36.4621V43.3632C203.856 44.3942 204.015 45.0023 204.332 45.2405V45.3728H200.868C200.656 45.1088 200.524 44.4742 200.445 43.8661ZM200.471 40.5873V38.5512C199.837 38.9217 198.859 39.1328 197.96 39.3446C196.082 39.7674 195.157 40.1909 195.157 41.4601C195.157 42.7292 196.003 43.1785 197.272 43.1785C199.334 43.1785 200.471 41.9094 200.471 40.5873Z" fill="#8B959E"/>
<path d="M209.594 33.976H209.674C210.494 32.4422 211.419 31.6494 213.005 31.6494C213.402 31.6494 213.64 31.6759 213.852 31.7553V34.9017H213.772C211.419 34.6635 209.727 35.9062 209.727 38.7622V45.3721H206.131V31.8082H209.595V33.976H209.594Z" fill="#8B959E"/>
<path d="M218.928 33.6598H219.007C219.933 32.2054 221.176 31.4385 223.027 31.4385C225.83 31.4385 227.707 33.554 227.707 36.5152V45.3729H224.111V37.0439C224.111 35.5894 223.265 34.5585 221.758 34.5585C220.172 34.5585 219.008 35.8276 219.008 37.6785V45.3729H215.412V31.809H218.928V33.6598H218.928Z" fill="#8B959E"/>
<path d="M229.926 26.4668H233.522V29.6927H229.926V26.4668ZM229.926 31.8082H233.522V45.3721H229.926V31.8082Z" fill="#8B959E"/>
<path d="M239.365 33.6598H239.445C240.37 32.2054 241.613 31.4385 243.464 31.4385C246.267 31.4385 248.144 33.554 248.144 36.5152V45.3729H244.549V37.0439C244.549 35.5894 243.702 34.5585 242.195 34.5585C240.609 34.5585 239.445 35.8276 239.445 37.6785V45.3729H235.85V31.809H239.366V33.6598H239.365Z" fill="#8B959E"/>
<path d="M249.994 45.7696H253.564C253.855 46.6159 254.621 47.277 256.287 47.277C258.323 47.277 259.301 46.2989 259.301 44.4475V42.9666H259.222C258.429 43.8658 257.398 44.5527 255.679 44.5527C252.665 44.5527 249.703 42.1732 249.703 38.0745C249.703 34.0288 252.136 31.4375 255.573 31.4375C257.265 31.4375 258.508 32.0986 259.328 33.2354H259.381V31.8074H262.845V44.3403C262.845 46.2441 262.237 47.5397 261.232 48.4655C260.095 49.5229 258.35 49.9993 256.341 49.9993C252.638 49.9999 250.364 48.4138 249.994 45.7696ZM259.487 37.9957C259.487 36.0126 258.429 34.3206 256.261 34.3206C254.436 34.3206 253.22 35.7485 253.22 38.0222C253.22 40.3223 254.436 41.6709 256.287 41.6709C258.561 41.6709 259.487 40.0054 259.487 37.9957Z" fill="#8B959E"/>
<path d="M102.877 11.6078H99.7573V18.9053H95.791V0H104.094C106.288 0 107.928 0.634587 109.038 1.77142C110.095 2.85532 110.73 4.17743 110.73 5.87008C110.73 8.5143 109.355 10.3651 106.975 11.1585L111.709 18.9053H107.267L102.877 11.6078ZM99.7573 8.48783H103.724C105.733 8.48783 106.791 7.5621 106.791 5.89655C106.791 4.17806 105.68 3.33174 103.777 3.33174H99.7573V8.48783Z" fill="black"/>
<path d="M111.629 12.11C111.629 8.0907 114.353 4.9707 118.318 4.9707C122.681 4.9707 125.008 8.30244 125.008 13.1409H115.172C115.436 15.23 116.6 16.5256 118.636 16.5256C120.037 16.5256 120.857 15.891 121.254 14.86H124.796C124.294 17.2661 122.152 19.3021 118.662 19.3021C114.167 19.3021 111.629 16.1557 111.629 12.11ZM115.225 10.6555H121.254C121.148 8.93703 120.011 7.74726 118.372 7.74726C116.467 7.74726 115.542 8.88409 115.225 10.6555Z" fill="black"/>
<path d="M125.828 14.516H129.16C129.398 16.0763 130.508 16.7638 132.121 16.7638C133.707 16.7638 134.606 16.1557 134.606 15.2035C134.606 13.9078 132.888 13.7755 131.037 13.4056C128.605 12.9298 126.225 12.2688 126.225 9.30694C126.225 6.37221 128.658 4.9707 131.751 4.9707C135.32 4.9707 137.304 6.74213 137.568 9.46574H134.316C134.157 8.0113 133.232 7.48258 131.698 7.48258C130.297 7.48258 129.372 8.0113 129.372 8.98996C129.372 10.1533 131.169 10.2591 133.1 10.6555C135.373 11.1313 137.886 11.7659 137.886 14.9388C137.886 17.6624 135.559 19.3015 132.175 19.3015C128.234 19.3021 126.04 17.3984 125.828 14.516Z" fill="black"/>
<path d="M139.498 0H143.094V3.22587H139.498V0ZM139.498 5.34137H143.094V18.9053H139.498V5.34137Z" fill="black"/>
<path d="M144.758 12.1365C144.758 7.90618 147.164 4.97082 150.549 4.97082C152.452 4.97082 153.642 5.84362 154.382 6.98045H154.462V0H158.058V18.9053H154.594V17.1338H154.541C153.747 18.4295 152.399 19.3023 150.495 19.3023C147.085 19.3023 144.758 16.5257 144.758 12.1365ZM154.541 12.2159C154.541 9.62467 153.695 7.87971 151.395 7.87971C149.412 7.87971 148.407 9.62467 148.407 12.1365C148.407 14.7543 149.438 16.2881 151.29 16.2881C153.431 16.2875 154.541 14.7014 154.541 12.2159Z" fill="black"/>
<path d="M159.725 12.11C159.725 8.0907 162.448 4.9707 166.415 4.9707C170.777 4.9707 173.104 8.30244 173.104 13.1409H163.268C163.533 15.23 164.696 16.5256 166.732 16.5256C168.134 16.5256 168.954 15.891 169.35 14.86H172.893C172.391 17.2661 170.249 19.3021 166.759 19.3021C162.263 19.3021 159.725 16.1557 159.725 12.11ZM163.321 10.6555H169.35C169.244 8.93703 168.107 7.74726 166.468 7.74726C164.564 7.74726 163.638 8.88409 163.321 10.6555Z" fill="black"/>
<path d="M178.285 7.19207H178.365C179.29 5.73763 180.533 4.9707 182.384 4.9707C185.187 4.9707 187.064 7.0862 187.064 10.0474V18.9051H183.468V10.5761C183.468 9.12167 182.622 8.0907 181.115 8.0907C179.529 8.0907 178.365 9.35987 178.365 11.2107V18.9051H174.77V5.34125H178.286V7.19207H178.285Z" fill="black"/>
<path d="M188.227 5.34135H190.104V1.11035H193.621V5.34072H195.947V7.72026H193.621V14.9125C193.621 15.917 194.176 16.261 194.969 16.261C195.419 16.261 196.027 16.2346 196.027 16.2346V18.8788C196.027 18.8788 195.207 18.9317 193.779 18.9317C192.034 18.9317 190.104 18.2442 190.104 15.6794V7.72026H188.227V5.34135H188.227Z" fill="black"/>
<path d="M197.799 0H201.395V3.22587H197.799V0ZM197.799 5.34137H201.395V18.9053H197.799V5.34137Z" fill="black"/>
<path d="M211.84 17.3983H211.787C211.099 18.4293 210.121 19.2226 207.794 19.2226C205.017 19.2226 203.061 17.7682 203.061 15.0711C203.061 12.0834 205.493 11.1312 208.508 10.7083C210.755 10.3907 211.787 10.2061 211.787 9.1745C211.787 8.19647 211.02 7.56188 209.513 7.56188C207.821 7.56188 207.001 8.17 206.895 9.46564H203.696C203.802 7.0861 205.573 4.99707 209.539 4.99707C213.612 4.99707 215.251 6.82143 215.251 9.99436V16.8954C215.251 17.9264 215.409 18.5345 215.726 18.7727V18.905H212.262C212.051 18.641 211.919 18.0064 211.84 17.3983ZM211.866 14.1195V12.0834C211.231 12.4539 210.253 12.665 209.354 12.8768C207.477 13.2996 206.551 13.7231 206.551 14.9923C206.551 16.2615 207.397 16.7108 208.667 16.7108C210.729 16.7108 211.866 15.4416 211.866 14.1195Z" fill="black"/>
<path d="M217.576 0H221.172V18.9053H217.576V0Z" fill="black"/>
<path d="M228.285 0H233.679L236.35 9.49233C237.011 11.8719 237.54 14.5955 237.54 14.5955H237.593C237.593 14.5955 238.095 11.8719 238.756 9.49233L241.426 0H246.899V18.9053H243.33V8.06435C243.33 6.53051 243.489 4.15097 243.489 4.15097H243.436C243.436 4.15097 243.013 6.37233 242.616 7.74675L239.364 18.9053H235.689L232.516 7.74675C232.12 6.3717 231.696 4.15097 231.696 4.15097H231.643C231.643 4.15097 231.802 6.53051 231.802 8.06435V18.9053H228.286V0H228.285Z" fill="black"/>
<path d="M249.834 0H253.668V18.9053H249.834V0Z" fill="black"/>
<path d="M255.625 0H270.829V3.22587H265.144V18.9053H261.31V3.22587H255.625V0Z" fill="black"/>
<path d="M274.609 11.7141L270.193 5.3418H274.292L276.698 9.22872H276.751L279.025 5.3418H282.753L278.549 11.6877L283.387 18.9057H279.104L276.592 14.4107H276.539L273.604 18.9057H269.664L274.609 11.7141Z" fill="black"/>
</g>
<defs>
<clipPath id="clip0_4764_732">
<rect width="283.388" height="50" fill="white"/>
</clipPath>
</defs>
</svg>
