<?xml version="1.0" encoding="utf-8"?>
<!-- Generator: Adobe Illustrator 28.1.0, SVG Export Plug-In . SVG Version: 6.00 Build 0)  -->
<svg version="1.1" xmlns="http://www.w3.org/2000/svg" xmlns:xlink="http://www.w3.org/1999/xlink" x="0px" y="0px"
	 viewBox="0 0 4496.97 793.43" style="enable-background:new 0 0 4496.97 793.43;" xml:space="preserve">
<style type="text/css">
	.st0{fill:#8B959E;}
</style>
<g id="Background">
</g>
<g id="Artwork">
	<g>
		<path d="M720,720h160V240H720V720z M960,160h400V0H960V160z M720,0h160v160H720V0z M480,720h160V0H480V720z M240,560h160V0H240
			V560z M0,720h160V0H0V720z M960,720h160V240H960V720z"/>
		<g>
			<g>
				<path class="st0" d="M1507.07,570.63c0-89.79,56.22-156.51,144.76-156.51c88.53,0,144.34,66.71,144.34,156.51
					c0,89.79-55.8,156.09-144.34,156.09C1563.29,726.72,1507.07,660.42,1507.07,570.63z M1734.07,570.63
					c0-60-26.85-106.58-81.82-106.58s-83.08,46.57-83.08,106.58c0,59.58,28.11,106.16,83.08,106.16S1734.07,630.21,1734.07,570.63z"
					/>
				<path class="st0" d="M1824.69,504.76h54.97v26.85h1.26c13.85-18.88,33.99-32.73,63.36-32.73c57.06,0,93.57,46.57,93.57,113.71
					c0,69.65-37.76,113.71-93.15,113.71c-30.21,0-49.93-12.17-62.1-30.63h-0.84v94.83h-57.06V504.76z M1979.94,614.27
					c0-40.7-14.27-69.23-49.51-69.23c-35.67,0-49.93,30.63-49.93,69.23c0,39.02,18.04,64.62,52.03,64.62
					C1961.48,678.88,1979.94,654.97,1979.94,614.27z"/>
				<path class="st0" d="M2053.78,612.17c0-63.78,43.22-113.29,106.16-113.29c69.23,0,106.16,52.87,106.16,129.65h-156.09
					c4.2,33.15,22.66,53.71,54.97,53.71c22.24,0,35.25-10.07,41.54-26.43h56.22c-7.97,38.18-41.96,70.49-97.34,70.49
					C2094.06,726.3,2053.78,676.37,2053.78,612.17z M2110.85,589.09h95.67c-1.68-27.27-19.72-46.15-45.73-46.15
					C2130.57,542.94,2115.88,560.98,2110.85,589.09z"/>
				<path class="st0" d="M2348.33,534.13h1.26c14.69-23.08,34.41-35.25,63.78-35.25c44.48,0,74.27,33.57,74.27,80.56V720h-57.06
					V587.83c0-23.08-13.43-39.44-37.34-39.44c-25.17,0-43.64,20.14-43.64,49.51V720h-57.06V504.76h55.8V534.13z"/>
				<path class="st0" d="M2597.97,420h60.84v249.23h140.98V720h-201.82V420z"/>
				<path class="st0" d="M2813.22,612.17c0-63.78,43.22-113.29,106.16-113.29c69.23,0,106.16,52.87,106.16,129.65h-156.09
					c4.2,33.15,22.66,53.71,54.97,53.71c22.24,0,35.25-10.07,41.54-26.43h56.22c-7.97,38.18-41.96,70.49-97.34,70.49
					C2853.5,726.3,2813.22,676.37,2813.22,612.17z M2870.28,589.09h95.67c-1.68-27.27-19.72-46.15-45.73-46.15
					C2890,542.94,2875.32,560.98,2870.28,589.09z"/>
				<path class="st0" d="M3180.77,696.09h-0.84c-10.91,16.36-26.43,28.95-63.36,28.95c-44.06,0-75.11-23.08-75.11-65.88
					c0-47.41,38.6-62.52,86.44-69.23c35.66-5.04,52.03-7.97,52.03-24.34c0-15.52-12.17-25.59-36.08-25.59
					c-26.85,0-39.86,9.65-41.54,30.21h-50.77c1.68-37.76,29.79-70.91,92.73-70.91c64.62,0,90.63,28.95,90.63,79.3v109.51
					c0,16.36,2.52,26.01,7.55,29.79v2.1h-54.97C3184.12,715.81,3182.03,705.74,3180.77,696.09z M3181.19,644.06v-32.31
					c-10.07,5.88-25.59,9.23-39.86,12.59c-29.79,6.71-44.48,13.43-44.48,33.57c0,20.14,13.43,27.27,33.57,27.27
					C3163.14,685.18,3181.19,665.04,3181.19,644.06z"/>
				<path class="st0" d="M3325.94,539.16h1.26c13.01-24.34,27.69-36.92,52.87-36.92c6.29,0,10.07,0.42,13.43,1.68v49.93h-1.26
					c-37.34-3.78-64.2,15.94-64.2,61.26V720h-57.06V504.76h54.97V539.16z"/>
				<path class="st0" d="M3474.05,534.13h1.26c14.69-23.08,34.41-35.25,63.78-35.25c44.48,0,74.27,33.57,74.27,80.56V720h-57.06
					V587.83c0-23.08-13.43-39.44-37.34-39.44c-25.17,0-43.64,20.14-43.64,49.51V720h-57.06V504.76h55.8V534.13z"/>
				<path class="st0" d="M3648.59,420h57.06v51.19h-57.06V420z M3648.59,504.76h57.06V720h-57.06V504.76z"/>
				<path class="st0" d="M3798.38,534.13h1.26c14.69-23.08,34.41-35.25,63.78-35.25c44.48,0,74.27,33.57,74.27,80.56V720h-57.06
					V587.83c0-23.08-13.43-39.44-37.34-39.44c-25.17,0-43.64,20.14-43.64,49.51V720h-57.06V504.76h55.8V534.13z"/>
				<path class="st0" d="M3967.05,726.3h56.64c4.62,13.43,16.78,23.92,43.22,23.92c32.31,0,47.83-15.52,47.83-44.9v-23.5h-1.26
					c-12.59,14.27-28.95,25.17-56.22,25.17c-47.83,0-94.83-37.76-94.83-102.8c0-64.2,38.6-105.32,93.15-105.32
					c26.85,0,46.57,10.49,59.58,28.53h0.84v-22.66h54.97v198.88c0,30.21-9.65,50.77-25.59,65.46
					c-18.04,16.78-45.74,24.34-77.62,24.34C4009.01,793.43,3972.92,768.26,3967.05,726.3z M4117.68,602.94
					c0-31.47-16.78-58.32-51.19-58.32c-28.95,0-48.25,22.66-48.25,58.74c0,36.5,19.3,57.9,48.67,57.9
					C4102.99,661.26,4117.68,634.83,4117.68,602.94z"/>
			</g>
		</g>
		<g>
			<path d="M1632.53,184.2h-49.51V300h-62.94V0h131.75c34.83,0,60.84,10.07,78.46,28.11c16.78,17.2,26.85,38.18,26.85,65.04
				c0,41.96-21.82,71.33-59.58,83.92L1772.67,300h-70.49L1632.53,184.2z M1583.02,134.69h62.94c31.89,0,48.67-14.69,48.67-41.12
				c0-27.27-17.62-40.7-47.83-40.7h-63.78V134.69z"/>
			<path d="M1771.41,192.17c0-63.78,43.22-113.29,106.15-113.29c69.23,0,106.16,52.87,106.16,129.65h-156.09
				c4.2,33.15,22.66,53.71,54.97,53.71c22.24,0,35.25-10.07,41.54-26.43h56.22c-7.97,38.18-41.96,70.49-97.34,70.49
				C1811.69,306.3,1771.41,256.37,1771.41,192.17z M1828.47,169.09h95.67c-1.68-27.27-19.72-46.15-45.73-46.15
				C1848.19,122.94,1833.51,140.98,1828.47,169.09z"/>
			<path d="M1996.72,230.35h52.87c3.78,24.76,21.4,35.67,46.99,35.67c25.17,0,39.44-9.65,39.44-24.76
				c0-20.56-27.27-22.66-56.64-28.53c-38.6-7.55-76.36-18.04-76.36-65.04c0-46.57,38.6-68.81,87.69-68.81
				c56.64,0,88.11,28.11,92.31,71.33h-51.61c-2.52-23.08-17.2-31.47-41.54-31.47c-22.24,0-36.92,8.39-36.92,23.92
				c0,18.46,28.53,20.14,59.16,26.43c36.08,7.55,75.95,17.62,75.95,67.97c0,43.22-36.92,69.23-90.63,69.23
				C2034.9,306.3,2000.08,276.09,1996.72,230.35z"/>
			<path d="M2213.64,0h57.06v51.19h-57.06V0z M2213.64,84.76h57.06V300h-57.06V84.76z"/>
			<path d="M2297.13,192.59c0-67.13,38.18-113.71,91.89-113.71c30.21,0,49.09,13.85,60.84,31.89h1.26V0h57.06v300h-54.97v-28.11
				h-0.84c-12.59,20.56-33.99,34.41-64.2,34.41C2334.06,306.3,2297.13,262.24,2297.13,192.59z M2452.38,193.85
				c0-41.12-13.43-68.81-49.93-68.81c-31.47,0-47.41,27.69-47.41,67.55c0,41.54,16.36,65.88,45.74,65.88
				C2434.76,258.46,2452.38,233.29,2452.38,193.85z"/>
			<path d="M2534.61,192.17c0-63.78,43.22-113.29,106.16-113.29c69.23,0,106.16,52.87,106.16,129.65h-156.09
				c4.2,33.15,22.66,53.71,54.97,53.71c22.24,0,35.25-10.07,41.54-26.43h56.22c-7.97,38.18-41.96,70.49-97.34,70.49
				C2574.89,306.3,2534.61,256.37,2534.61,192.17z M2591.68,169.09h95.67c-1.68-27.27-19.72-46.15-45.73-46.15
				C2611.4,122.94,2596.71,140.98,2591.68,169.09z"/>
			<path d="M2829.16,114.13h1.26c14.69-23.08,34.41-35.25,63.78-35.25c44.48,0,74.27,33.57,74.27,80.56V300h-57.06V167.83
				c0-23.08-13.43-39.44-37.34-39.44c-25.17,0-43.64,20.14-43.64,49.51V300h-57.06V84.76h55.8V114.13z"/>
			<path d="M2986.92,84.76h29.79V17.62h55.8v67.13h36.92v37.76h-36.92v114.13c0,15.94,8.81,21.4,21.4,21.4
				c7.13,0,16.78-0.42,16.78-0.42v41.96c0,0-13.01,0.84-35.67,0.84c-27.69,0-58.32-10.91-58.32-51.61v-126.3h-29.79V84.76z"/>
			<path d="M3138.8,0h57.06v51.19h-57.06V0z M3138.8,84.76h57.06V300h-57.06V84.76z"/>
			<path d="M3361.6,276.09h-0.84c-10.91,16.36-26.43,28.95-63.36,28.95c-44.06,0-75.11-23.08-75.11-65.88
				c0-47.41,38.6-62.52,86.44-69.23c35.66-5.04,52.03-7.97,52.03-24.34c0-15.52-12.17-25.59-36.08-25.59
				c-26.85,0-39.86,9.65-41.54,30.21h-50.77c1.68-37.76,29.79-70.91,92.73-70.91c64.62,0,90.63,28.95,90.63,79.3v109.51
				c0,16.36,2.52,26.01,7.55,29.79v2.1h-54.97C3364.96,295.81,3362.86,285.74,3361.6,276.09z M3362.02,224.06v-32.31
				c-10.07,5.88-25.59,9.23-39.86,12.59c-29.79,6.71-44.48,13.43-44.48,33.57c0,20.14,13.43,27.27,33.57,27.27
				C3343.98,265.18,3362.02,245.04,3362.02,224.06z"/>
			<path d="M3452.64,0h57.06v300h-57.06V0z"/>
			<path d="M3622.57,0h85.6l42.38,150.63c10.49,37.76,18.88,80.98,18.88,80.98h0.84c0,0,7.97-43.22,18.46-80.98L3831.1,0h86.85v300
				h-56.64V127.97c0-24.34,2.52-62.1,2.52-62.1h-0.84c0,0-6.71,35.25-13.01,57.06L3798.38,300h-58.32l-50.35-177.07
				c-6.29-21.82-13.01-57.06-13.01-57.06h-0.84c0,0,2.52,37.76,2.52,62.1V300h-55.8V0z"/>
			<path d="M3964.53,0h60.84v300h-60.84V0z"/>
			<path d="M4056.41,0h241.26v51.19h-90.21V300h-60.84V51.19h-90.21V0z"/>
			<path d="M4357.67,185.88L4287.6,84.76h65.04l38.18,61.68h0.84l36.08-61.68h59.16l-66.71,100.7L4496.97,300H4429l-39.86-71.33
				h-0.84L4341.72,300h-62.52L4357.67,185.88z"/>
		</g>
	</g>
</g>
<g id="Guides">
</g>
</svg>
