<svg width="195" height="50" viewBox="0 0 195 50" fill="none" xmlns="http://www.w3.org/2000/svg">
<g clip-path="url(#clip0_4764_768)">
<path d="M45.039 45.4072H55.0477V15.3812H45.039V45.4072ZM60.052 10.3768H85.0737V0.368164H60.052V10.3768ZM45.039 0.368164H55.0477V10.3768H45.039V0.368164ZM30.026 45.4072H40.0347V0.368164H30.026V45.4072ZM15.013 35.3985H25.0217V0.368164H15.013V35.3985ZM0 45.4072H10.0087V0.368164H0V45.4072ZM60.052 45.4072H70.0607V15.3812H60.052V45.4072Z" fill="black"/>
<path d="M96.5254 26.6406H100.331V42.2312H109.15V45.4071H96.5254V26.6406Z" fill="black"/>
<path d="M109.99 38.6618C109.99 34.6723 112.694 31.5752 116.631 31.5752C120.961 31.5752 123.271 34.8823 123.271 39.6855H113.507C113.77 41.759 114.925 43.0451 116.946 43.0451C118.337 43.0451 119.15 42.4152 119.544 41.3915H123.061C122.562 43.78 120.436 45.801 116.972 45.801C112.51 45.801 109.99 42.6776 109.99 38.6618ZM113.56 37.2183H119.544C119.439 35.5122 118.311 34.3311 116.683 34.3311C114.793 34.3311 113.875 35.4597 113.56 37.2183Z" fill="black"/>
<path d="M132.982 43.9113H132.929C132.247 44.9349 131.275 45.7224 128.966 45.7224C126.21 45.7224 124.268 44.2788 124.268 41.6016C124.268 38.6357 126.682 37.6908 129.675 37.2708C131.905 36.9559 132.929 36.7722 132.929 35.7485C132.929 34.7774 132.168 34.1475 130.672 34.1475C128.992 34.1475 128.178 34.7511 128.073 36.0372H124.897C125.003 33.675 126.761 31.6016 130.698 31.6016C134.74 31.6016 136.367 33.4126 136.367 36.5622V43.4126C136.367 44.4362 136.525 45.04 136.84 45.2761V45.4074H133.402C133.192 45.1449 133.06 44.5149 132.982 43.9113ZM133.008 40.6567V38.6357C132.378 39.0032 131.407 39.2131 130.514 39.4231C128.651 39.8431 127.732 40.263 127.732 41.5228C127.732 42.7827 128.572 43.2288 129.832 43.2288C131.879 43.2289 133.008 41.969 133.008 40.6567Z" fill="black"/>
<path d="M142.063 34.0949H142.142C142.956 32.5726 143.874 31.7852 145.449 31.7852C145.843 31.7852 146.079 31.8114 146.289 31.8902V35.0136H146.21C143.874 34.7774 142.195 36.0109 142.195 38.8456V45.4073H138.625V31.9427H142.063L142.063 34.0949Z" fill="black"/>
<path d="M151.327 33.7799H151.405C152.324 32.3364 153.558 31.5752 155.395 31.5752C158.177 31.5752 160.041 33.6749 160.041 36.6146V45.4074H156.471V37.1396C156.471 35.696 155.631 34.6724 154.135 34.6724C152.56 34.6724 151.405 35.9323 151.405 37.7696V45.4074H147.836V31.9426H151.327L151.327 33.7799Z" fill="black"/>
<path d="M162.246 26.6406H165.816V29.8427H162.246V26.6406ZM162.246 31.9425H165.816V45.4071H162.246V31.9425Z" fill="black"/>
<path d="M171.616 33.7799H171.695C172.613 32.3364 173.847 31.5752 175.684 31.5752C178.466 31.5752 180.33 33.6749 180.33 36.6146V45.4074H176.76V37.1396C176.76 35.696 175.92 34.6724 174.424 34.6724C172.849 34.6724 171.695 35.9323 171.695 37.7696V45.4074H168.125V31.9426H171.616L171.616 33.7799Z" fill="black"/>
<path d="M182.168 45.801H185.711C186 46.6409 186.761 47.2971 188.414 47.2971C190.435 47.2971 191.407 46.326 191.407 44.4886V43.0188H191.328C190.54 43.9112 189.517 44.5936 187.811 44.5936C184.819 44.5936 181.879 42.2314 181.879 38.1632C181.879 34.1474 184.294 31.5752 187.706 31.5752C189.386 31.5752 190.619 32.2313 191.433 33.36H191.485V31.9426H194.924V44.3837C194.924 46.2734 194.32 47.5596 193.323 48.4782C192.194 49.5281 190.462 50.0005 188.467 50.0005C184.792 50.0005 182.535 48.4257 182.168 45.801ZM191.59 38.0844C191.59 36.1158 190.54 34.4361 188.388 34.4361C186.577 34.4361 185.37 35.8534 185.37 38.1106C185.37 40.3941 186.577 41.7327 188.414 41.7327C190.672 41.7327 191.59 40.0792 191.59 38.0844Z" fill="black"/>
<path d="M95.7129 9.79011C95.7129 4.1733 99.23 0 104.768 0C110.306 0 113.797 4.1733 113.797 9.79011C113.797 15.407 110.306 19.5539 104.768 19.5539C99.23 19.5539 95.7129 15.407 95.7129 9.79011ZM109.912 9.79011C109.912 6.03679 108.233 3.12339 104.794 3.12339C101.356 3.12339 99.5974 6.03679 99.5974 9.79011C99.5974 13.5171 101.356 16.4305 104.794 16.4305C108.233 16.4305 109.912 13.5171 109.912 9.79011Z" fill="black"/>
<path d="M115.582 5.6692H119.02V7.34903H119.099C119.965 6.16795 121.225 5.30176 123.062 5.30176C126.632 5.30176 128.915 8.21516 128.915 12.4147C128.915 16.7716 126.553 19.5276 123.089 19.5276C121.199 19.5276 119.965 18.7664 119.204 17.6115H119.152V23.5433H115.582V5.6692ZM125.293 12.5196C125.293 9.97374 124.401 8.18895 122.196 8.18895C119.965 8.18895 119.073 10.105 119.073 12.5196C119.073 14.9606 120.201 16.5616 122.327 16.5616C124.139 16.5616 125.293 15.0656 125.293 12.5196Z" fill="black"/>
<path d="M129.912 12.3884C129.912 8.39888 132.616 5.30176 136.553 5.30176C140.883 5.30176 143.193 8.60887 143.193 13.412H133.429C133.692 15.4855 134.847 16.7716 136.868 16.7716C138.259 16.7716 139.072 16.1417 139.466 15.118H142.983C142.484 17.5065 140.358 19.5275 136.894 19.5275C132.432 19.5276 129.912 16.4041 129.912 12.3884ZM133.482 10.9448H139.466C139.361 9.23879 138.232 8.05771 136.605 8.05771C134.715 8.05764 133.797 9.18625 133.482 10.9448Z" fill="black"/>
<path d="M148.336 7.50648H148.415C149.334 6.06292 150.567 5.30176 152.405 5.30176C155.187 5.30176 157.05 7.40145 157.05 10.3412V19.1339H153.481V10.8661C153.481 9.42258 152.641 8.39894 151.145 8.39894C149.57 8.39894 148.415 9.65884 148.415 11.4961V19.134H144.846V5.6692H148.337L148.336 7.50648Z" fill="black"/>
</g>
<defs>
<clipPath id="clip0_4764_768">
<rect width="194.923" height="50" fill="white"/>
</clipPath>
</defs>
</svg>
